<?xml version="1.0" encoding="utf-8"?>
<!-- Generator: Adobe Illustrator 27.0.0, SVG Export Plug-In . SVG Version: 6.00 Build 0)  -->
<svg version="1.1" id="Layer_1" xmlns="http://www.w3.org/2000/svg" xmlns:xlink="http://www.w3.org/1999/xlink" x="0px" y="0px"
	 viewBox="0 0 791.92 543.14" style="enable-background:new 0 0 791.92 543.14;" xml:space="preserve">
<style type="text/css">
	.st0{fill:url(#SVGID_1_);}
	.st1{fill:url(#SVGID_00000000202202432516214710000016206430303695621774_);}
	.st2{fill:url(#SVGID_00000053540765371428878880000000739198373040377998_);}
	.st3{fill:url(#SVGID_00000019640956125353679710000002028046382531757711_);}
	.st4{fill:url(#SVGID_00000066507591362506806320000002691752986613889973_);}
	.st5{opacity:0.8;}
	.st6{fill:#E6E7E8;}
</style>
<g>
	<linearGradient id="SVGID_1_" gradientUnits="userSpaceOnUse" x1="124.8726" y1="391.5641" x2="222.9926" y2="391.5641">
		<stop  offset="0" style="stop-color:#0052A4"/>
		<stop  offset="1" style="stop-color:#622D91"/>
	</linearGradient>
	<path class="st0" d="M216.39,389.7c-3.21,0-5.89,2.29-6.48,5.33c-9.39,1.32-17.97,1.39-25.7,0.63c-0.77-2.78-3.32-4.81-6.35-4.81
		c-2.28,0-4.28,1.15-5.47,2.91c-17.08-3.85-28.8-11.46-34.78-16.18c0.3-0.74,0.46-1.55,0.46-2.4c0-3.65-2.96-6.6-6.6-6.6
		c-3.65,0-6.6,2.95-6.6,6.6c0,3.64,2.95,6.6,6.6,6.6c0.92,0,1.8-0.19,2.6-0.54c4.26,3.47,11.36,8.41,21.23,12.51l-4.4,10.75l3.9,1.6
		l4.43-10.83c3.72,1.35,7.77,2.57,12.17,3.54c0.42,1.98,1.75,3.62,3.51,4.5l-1.72,10.55l4.16,0.69l1.74-10.65
		c1.93-0.36,3.55-1.55,4.49-3.19c3.26,0.31,6.67,0.48,10.23,0.48c5.36,0,11.06-0.38,17.08-1.25c1.18,1.78,3.2,2.95,5.5,2.95
		c3.64,0,6.6-2.96,6.6-6.6C222.99,392.65,220.03,389.7,216.39,389.7z M134.68,375.18c0,1.77-1.44,3.21-3.21,3.21
		c-0.26,0-0.51-0.03-0.75-0.09c-1.42-0.34-2.47-1.61-2.47-3.12c0-1.78,1.44-3.21,3.22-3.21c1.75,0,3.17,1.39,3.21,3.14V375.18z
		 M179.45,400.24c-0.47,0.27-1.01,0.42-1.59,0.42c-0.93,0-1.77-0.4-2.35-1.03c-0.53-0.57-0.86-1.33-0.86-2.18
		c0-1.26,0.72-2.35,1.77-2.88c0.43-0.22,0.93-0.34,1.44-0.34c0.89,0,1.7,0.36,2.29,0.95c0.57,0.59,0.93,1.38,0.93,2.27
		C181.08,398.65,180.42,399.69,179.45,400.24z M216.39,399.51c-0.44,0-0.86-0.09-1.24-0.25h-0.01c-1.16-0.49-1.96-1.63-1.96-2.96
		c0-0.7,0.22-1.35,0.61-1.88c0.57-0.81,1.52-1.34,2.6-1.34c1.77,0,3.21,1.44,3.21,3.22C219.6,398.07,218.16,399.51,216.39,399.51z"
		/>
	<g>
		
			<linearGradient id="SVGID_00000042709166973780207720000017500562201604824755_" gradientUnits="userSpaceOnUse" x1="45.6789" y1="2242.2539" x2="112.2395" y2="2242.2539" gradientTransform="matrix(0.8522 -0.5233 0.5233 0.8522 -636.5605 -1586.2075)">
			<stop  offset="0" style="stop-color:#0052A4"/>
			<stop  offset="1" style="stop-color:#622D91"/>
		</linearGradient>
		<path style="fill:url(#SVGID_00000042709166973780207720000017500562201604824755_);" d="M644.2,292.43
			c-1.01-2.3-2.19-4.52-3.52-6.68c-4.3-6.99-9.86-12.74-16.23-17.13l0-0.01c0.41-1.65,0.18-3.47-0.78-5.03
			c-0.33-0.53-0.71-1-1.15-1.39l2.89-7.86l-3.96-1.46l-2.79,7.6c-1.38-0.13-2.8,0.16-4.06,0.94c-0.53,0.33-1,0.71-1.39,1.15
			c-4.95-1.99-10.16-3.29-15.46-3.85l1.68-11.72l-4.18-0.59l-1.73,12.02c-8.51-0.28-17.16,1.32-25.28,4.96
			c-2.07-2.42-5.66-3.05-8.46-1.33c-3.11,1.91-4.08,5.98-2.17,9.09c1.9,3.1,5.98,4.07,9.08,2.17c2.14-1.31,3.26-3.65,3.13-6
			c13.49-6.1,28.55-6.13,41.67-0.9c-0.14,1.38,0.15,2.82,0.94,4.09c1.9,3.1,5.98,4.07,9.07,2.17c0.24-0.15,0.48-0.31,0.7-0.5
			c5.84,4.06,10.94,9.36,14.89,15.79c1.19,1.93,2.25,3.94,3.18,5.99c-2.47,2.06-3.13,5.7-1.4,8.53c1.9,3.1,5.98,4.07,9.07,2.17
			c3.11-1.91,4.08-5.98,2.18-9.08C648.82,293.44,646.52,292.32,644.2,292.43z M566.09,269.17c-0.26,0.51-0.65,0.94-1.17,1.26
			c-1.52,0.93-3.51,0.46-4.44-1.06c-0.93-1.52-0.45-3.51,1.06-4.44c1.09-0.67,2.43-0.61,3.44,0.05c0.39,0.25,0.74,0.59,1,1.02
			C566.6,267,566.6,268.2,566.09,269.17z M621.11,266.04c0.06,0.16,0.09,0.33,0.13,0.5c0.19,1.25-0.36,2.55-1.5,3.25
			c-0.24,0.15-0.48,0.25-0.73,0.33c-1.38,0.43-2.91-0.1-3.7-1.39c-0.15-0.25-0.27-0.52-0.35-0.79c-0.4-1.36,0.14-2.87,1.4-3.64
			c0.12-0.07,0.23-0.13,0.34-0.18c0.23-0.11,0.46-0.18,0.7-0.23c1.28-0.26,2.66,0.29,3.39,1.47
			C620.93,265.58,621.03,265.81,621.11,266.04z M646.18,301.77c-1.52,0.93-3.51,0.45-4.43-1.06c-0.64-1.04-0.62-2.29-0.06-3.28
			c0.25-0.46,0.64-0.87,1.12-1.16c0.89-0.55,1.94-0.61,2.86-0.26c0.64,0.25,1.2,0.7,1.58,1.32
			C648.18,298.84,647.7,300.84,646.18,301.77z"/>
	</g>
	
		<linearGradient id="SVGID_00000172431883036660674620000000531933552784932491_" gradientUnits="userSpaceOnUse" x1="27.0457" y1="363.4245" x2="806.1296" y2="332.5697">
		<stop  offset="0.1061" style="stop-color:#00BAED"/>
		<stop  offset="0.1476" style="stop-color:#00A4DD"/>
		<stop  offset="0.3508" style="stop-color:#114A9F"/>
		<stop  offset="0.4152" style="stop-color:#1A459D"/>
		<stop  offset="0.7005" style="stop-color:#2E3192"/>
		<stop  offset="0.868" style="stop-color:#B41E8E"/>
		<stop  offset="0.8955" style="stop-color:#BB2990"/>
		<stop  offset="0.9412" style="stop-color:#CD4398"/>
		<stop  offset="0.9993" style="stop-color:#EF69A7"/>
		<stop  offset="1" style="stop-color:#F06AA8"/>
	</linearGradient>
	<path style="fill:url(#SVGID_00000172431883036660674620000000531933552784932491_);" d="M599.47,218.14
		c-52.7,0-97.16,34.99-119.39,53.44c-22.23,18.44-46.94,45.38-116.1,118.25c-69.17,72.87-146.29,60.11-146.29,60.11
		c-54.63,0-146.57-43.09-153.17-131.05c-1.26,0.14-2.58,0.99-3.83,2.73c-2.37,2.8-3.3,11.29-3.23,14.84
		c0.87,44.77,29.43,84.74,65.36,109.39c1.14,0.77,3.18,2.16,4.36,2.69c3.01,2.36,11.35,6.87,15.01,8.76
		c33.56,17.31,72.12,23.55,109.54,19.46c15.71-1.71,31.45-5.8,46.23-11.22c1.61-0.59,7.83-2.95,8.97-3.71
		c8.98-3.15,35.44-17.98,42.54-24.52c1.04-0.65,2.55-1.88,3.58-2.64c5.24-3.85,13.41-10.75,18.23-15.3c0.82-0.63,1.1-0.9,1.81-1.64
		c2.45-1.87,6.81-6.24,9.18-8.54c6.33-6.14,12.53-12.42,18.58-18.84c1.07-1.14,4.09-4.63,6.23-6.88l0.11-0.12l1.27-1.42l13.92-15.6
		c70.44,71.35,125.76,83.61,165.56,83.61c39.93,0,120.32-44.68,121.86-119.55C711.46,249.96,652.17,218.14,599.47,218.14z
		 M666.63,329.89c-1.55,11.66-2.04,14.95-5.9,25.99c-10.2,22.99-21.65,36.06-43.64,48.37c-14.64,6.26-23.74,8.84-39.9,8.43
		c-14.04-0.35-22.37-2.26-35.79-6.39c-2.34-1.07-5.32-2.02-7.78-2.97c-4.48-1.78-8.9-3.71-13.25-5.8
		c-17.46-8.46-35.01-20.61-50.54-32.16l-7.5-5.97c-0.82-0.89-4.64-3.9-5.77-4.82l-13.75-11.09l2.99-3.36l0.09-0.11l3.81-4.27
		c3.03-3.31,6.25-6.71,8.15-8.7c12.29-13.09,25.36-25.43,39.1-36.98c6.43-5.2,13.02-10.18,19.78-14.93
		c12.68-8.6,25.97-16.23,40.56-21.07c1.35-0.45,2.78-0.99,4.09-1.56c24.69-6.19,37.63-6.26,61.29,1.8c1.84,1.03,4,1.75,5.77,2.75
		c6.51,3.69,14.09,9.31,18.9,15.12c2.79,3.32,5.31,6.33,7.64,10.04C663.44,295.7,668,314,666.63,329.89z"/>
	
		<linearGradient id="SVGID_00000095298720186749368840000018310725209841474974_" gradientUnits="userSpaceOnUse" x1="118.3376" y1="289.0433" x2="736.3118" y2="289.0433">
		<stop  offset="0" style="stop-color:#00ADEB"/>
		<stop  offset="0.0441" style="stop-color:#009BDC"/>
		<stop  offset="0.2598" style="stop-color:#114A9F"/>
		<stop  offset="0.301" style="stop-color:#1A459D"/>
		<stop  offset="0.4832" style="stop-color:#2E3192"/>
		<stop  offset="0.7849" style="stop-color:#B41E8E"/>
		<stop  offset="1" style="stop-color:#F06AA8"/>
	</linearGradient>
	<path style="fill:url(#SVGID_00000095298720186749368840000018310725209841474974_);" d="M733.16,347.94
		c-5.02,22.75-16.68,48.7-31.95,66.42c-24.88,29.97-59.24,51.1-98.45,55.7c-0.43,0.05-0.36,0.04-0.78,0.02
		c-23.29,4-56-2.38-77.85-10.35c-1.28-0.24-7.02-2.76-8.42-3.36c-19.28-8.22-37.28-19.14-54.29-31.34
		c-2.95-2.11-10.03-7.15-12.5-9.59c-0.87-0.51-2.47-1.84-3.32-2.51c-6.18-4.84-12.25-9.82-18.19-14.95l-18.93-16.07l13.92-15.6
		c70.44,71.35,125.76,83.61,165.56,83.61c39.93,0,120.32-44.68,121.86-119.55c1.66-80.42-57.64-112.24-110.34-112.24
		c-52.7,0-97.16,34.99-119.39,53.44c-22.23,18.44-46.94,45.38-116.1,118.25c-69.17,72.87-146.29,60.11-146.29,60.11
		c54.61,0,115.82-34.04,115.82-85.36s-62.03-73.83-69.72-77.68c-7.68-3.84-57.09-22.77-97.42-42.54
		c-40.35-19.76-48.04-52.42-48.04-66.69c0-14.28,15.3-70.89,98.46-70.89s141.62,62.42,141.62,62.42c-5.77,5.06-12.14-2.45-17.08-6
		c-6.09-4.3-12.41-8.27-18.93-11.89c-15.85-8.56-32.91-14.69-50.6-18.16c-29.27-5.66-66.85-3.72-90.62,16.27
		c-5.58,4.78-10.02,10.68-12.39,17.67c-10.98,32.37,23.43,48.7,47.94,57.92c2.58,0.97,7.82,2.81,10.07,3.95
		c10.31,3.62,20.39,7.37,30.76,10.92c5.38,1.81,10.73,3.69,16.06,5.62c1.8,0.65,5.21,1.83,6.77,2.59
		c4.74,1.43,10.08,3.79,14.73,5.59c1.61,0.62,6.23,2.41,7.58,3.17c2.33,0.97,7.26,2.9,9.33,4.12c6.91,2.62,35.55,18.56,39.51,23.35
		c2.81,1.95,8.77,7.05,11.23,9.48c0.51,0.49,1.12,1,1.6,1.53c2.24-2.4,5.47-4.93,7.97-7.17c5.59-5.03,11.36-9.67,17.15-14.44
		c12.71-10.49,25.49-21.32,38.68-31.21c1.1-1.29,8.38-6.5,10.07-7.71c15.75-11.33,33.73-24.23,50.9-33.19
		c6.19-3.99,13.65-7.17,20.31-10.35c71.82-34.22,158.19-23.77,203.37,46.81C733.83,270.58,741.14,310.07,733.16,347.94z"/>
	
		<linearGradient id="SVGID_00000107583121013029922520000005994470532324657044_" gradientUnits="userSpaceOnUse" x1="55.604" y1="257.5582" x2="359.3925" y2="257.5582">
		<stop  offset="0" style="stop-color:#00BAED"/>
		<stop  offset="0.0595" style="stop-color:#00A4DD"/>
		<stop  offset="0.3508" style="stop-color:#114A9F"/>
		<stop  offset="0.3875" style="stop-color:#1A459D"/>
		<stop  offset="0.5503" style="stop-color:#2E3192"/>
		<stop  offset="0.8184" style="stop-color:#B41E8E"/>
		<stop  offset="1" style="stop-color:#F06AA8"/>
	</linearGradient>
	<path style="fill:url(#SVGID_00000107583121013029922520000005994470532324657044_);" d="M358.42,169.19
		c0,0-58.46-62.42-141.62-62.42s-98.46,56.61-98.46,70.89c0,14.27,7.69,46.93,48.04,66.69c40.34,19.77,89.75,38.7,97.42,42.54
		c7.69,3.85,69.72,26.35,69.72,77.68s-61.2,85.36-115.82,85.36c-54.63,0-146.57-43.09-153.17-131.05c2.3-0.27,4.01,1.83,5.43,5.05
		l0.2,0.46c0.95,2.72,2.45,5.92,3.78,8.63c17.28,35.24,49.53,61.76,87.4,72.95c4.48,1.32,9.03,2.39,13.61,3.24
		c4.49,1,8.83,1.17,13.01,2.05c21.19,1.64,38.42,0.78,58.46-7.36c21.02-8.54,40.11-30.81,29.69-54.29
		c-10.16-22.87-42.59-32.68-64.2-40.59c-11.09-4.06-22.45-7.77-33.54-12.03c-8.41-2.76-19.21-7.14-27.37-10.59
		c-22.35-9.46-43.96-20.44-62.01-36.95c-2.37-2.17-6.26-5.7-8-8.18c-3.3-2.86-6.77-7.84-9.26-11.42
		c-8.94-12.71-14.29-27.67-15.72-43.1c-5.93-63.61,53.55-109.99,111.11-119.21c6.6-1.06,12.68-1.61,19.27-2.24
		c47.08-1.33,74.14,10.37,74.14,10.37c12.33,5.1,24.57,9.95,35.94,17.1c1.91,1.19,7.15,4.7,9.05,5.72l3.38,2.38
		c1.64,1.21,8.73,6.53,10.21,8.05c4.05,3.11,17.46,15.69,19.84,19.5c5.65,5.97,13.99,19.05,17.33,26.53l1.07,2.46
		C358.89,161.04,360.46,165.38,358.42,169.19z"/>
	<g class="st5">
		<g>
			<path class="st6" d="M217.64,450.19c-30.14,0-66.44-12.49-94.73-32.59c-24.71-17.55-54.64-48.95-58.38-98.73l0.01,0
				c6.32,84.17,94.65,130.71,153.1,130.71c27.67,0,56.17-8.52,78.2-23.37c24.04-16.21,37.28-38.11,37.28-61.65
				c0-30.98-22.34-56.54-66.39-75.96c-1.38-0.61-2.46-1.09-3.13-1.42c-2.43-1.21-9.06-3.95-18.25-7.74
				c-19.3-7.96-51.6-21.29-79.15-34.78c-17.7-8.67-30.91-20.62-39.26-35.52c-8.05-14.36-8.92-26.76-8.92-31.43
				c0-7.15,3.79-24.92,18.12-40.98c8-8.97,18.11-16.06,30.05-21.09c14.32-6.03,31.33-9.09,50.57-9.09
				c43.02,0,79.28,16.99,102.12,31.24c24.75,15.44,39.41,31.25,39.55,31.4l0,0c-0.15-0.16-15.21-15.5-39.89-30.9
				c-22.77-14.21-58.92-31.14-101.78-31.14c-34.94,0-62.66,10.37-80.16,29.98c-14.21,15.92-17.96,33.5-17.96,40.58
				c0,4.62,0.86,16.9,8.84,31.13c8.29,14.79,21.42,26.66,39,35.27c27.53,13.49,59.82,26.81,79.11,34.77
				c9.2,3.8,15.85,6.54,18.29,7.76c0.65,0.33,1.74,0.8,3.1,1.41c7.2,3.18,24.07,10.61,38.9,23.02
				c18.48,15.47,27.85,33.46,27.85,53.49c0,23.75-13.34,45.83-37.55,62.16C274.05,441.63,245.43,450.19,217.64,450.19z"/>
		</g>
		<g>
			<path class="st6" d="M223.91,450.36c-3.98,0-6.23-0.17-6.3-0.18l0.05-0.6c0.2,0.02,20.73,1.6,48.86-4.99
				c25.95-6.08,63.87-20.56,97.13-55c21.87-22.65,39.4-41.06,53.48-55.85c31.51-33.1,47.33-49.71,62.6-62.37
				c17.64-14.63,64.49-53.48,119.54-53.48c32.28,0,62.2,11.65,82.1,31.97c19.6,20,29.18,47.1,28.5,80.54
				c-0.36,17.63-5.11,34.58-14.11,50.39c-7.9,13.88-18.84,26.55-32.52,37.66c-23.39,18.99-53.73,31.75-75.49,31.75
				c-24.62,0-47.95-4.94-71.32-15.1c-30.85-13.41-62.36-36.69-94.05-68.77l0.08-0.07c73.92,74.83,129.81,83.34,165.3,83.34
				c18,0,48.21-9.78,75.11-31.62c29.25-23.75,45.73-54.86,46.4-87.59c0.68-33.27-8.84-60.22-28.32-80.1
				c-19.79-20.2-49.56-31.79-81.67-31.79c-54.84,0-101.56,38.75-119.16,53.34c-15.24,12.64-31.05,29.25-62.55,62.33
				c-14.09,14.8-31.62,33.21-53.49,55.86c-33.37,34.56-71.41,49.08-97.45,55.18C247.65,449.63,232.11,450.36,223.91,450.36z"/>
		</g>
	</g>
</g>
</svg>
