<?xml version="1.0" encoding="utf-8"?>
<!-- Generator: Adobe Illustrator 27.0.0, SVG Export Plug-In . SVG Version: 6.00 Build 0)  -->
<svg version="1.1" id="Layer_1" xmlns="http://www.w3.org/2000/svg" xmlns:xlink="http://www.w3.org/1999/xlink" x="0px" y="0px"
	 viewBox="0 0 950.12 630" style="enable-background:new 0 0 950.12 630;" xml:space="preserve">
<style type="text/css">
	.st0{fill:url(#SVGID_1_);}
	.st1{fill:url(#SVGID_00000114074404674338361580000016392589583884823999_);}
	.st2{fill:url(#SVGID_00000170990283012559216450000017807694318216660883_);}
	.st3{fill:url(#SVGID_00000107587924132518333500000011464758654880891023_);}
	.st4{fill:url(#SVGID_00000017478969479881550060000007486289053450411683_);}
	.st5{opacity:0.8;}
	.st6{fill:#E6E7E8;}
	.st7{fill:url(#SVGID_00000091001008858568300370000008402464931644863401_);}
	.st8{fill:url(#SVGID_00000147207219511734471060000006598176028869538432_);}
	.st9{fill:url(#SVGID_00000128447387044071099270000003104579649285515177_);}
	.st10{fill:url(#SVGID_00000170253718724054860500000007539368594133109418_);}
	.st11{fill:url(#SVGID_00000163763755347926835670000017044290872805332413_);}
	.st12{fill:url(#SVGID_00000142895702824127732530000012930390096889443994_);}
	.st13{fill:url(#SVGID_00000049208941735932360200000000136398532463491985_);}
	.st14{fill:url(#SVGID_00000080924816122426721490000001023269245549694371_);}
	.st15{fill:url(#SVGID_00000156563710067569915400000005140154426895318166_);}
	.st16{fill:url(#SVGID_00000182512384362583608590000005840745000808050337_);}
</style>
<g>
	<linearGradient id="SVGID_1_" gradientUnits="userSpaceOnUse" x1="203.9735" y1="326.3745" x2="302.0935" y2="326.3745">
		<stop  offset="0" style="stop-color:#0052A4"/>
		<stop  offset="1" style="stop-color:#622D91"/>
	</linearGradient>
	<path class="st0" d="M295.49,324.51c-3.21,0-5.89,2.29-6.48,5.33c-9.39,1.32-17.97,1.39-25.7,0.63c-0.77-2.78-3.32-4.81-6.35-4.81
		c-2.28,0-4.28,1.15-5.47,2.91c-17.08-3.85-28.8-11.46-34.78-16.18c0.3-0.74,0.46-1.55,0.46-2.4c0-3.65-2.96-6.6-6.6-6.6
		c-3.65,0-6.6,2.95-6.6,6.6c0,3.64,2.95,6.6,6.6,6.6c0.92,0,1.8-0.19,2.6-0.54c4.26,3.47,11.36,8.41,21.23,12.51l-4.4,10.75l3.9,1.6
		l4.43-10.83c3.72,1.35,7.77,2.57,12.17,3.54c0.42,1.98,1.75,3.62,3.51,4.5l-1.72,10.55l4.16,0.69l1.74-10.65
		c1.93-0.36,3.55-1.55,4.49-3.19c3.26,0.31,6.67,0.48,10.23,0.48c5.36,0,11.06-0.38,17.08-1.25c1.18,1.78,3.2,2.95,5.5,2.95
		c3.64,0,6.6-2.96,6.6-6.6C302.09,327.46,299.13,324.51,295.49,324.51z M213.78,309.99c0,1.77-1.44,3.21-3.21,3.21
		c-0.26,0-0.51-0.03-0.75-0.09c-1.42-0.34-2.47-1.61-2.47-3.12c0-1.78,1.44-3.21,3.22-3.21c1.75,0,3.17,1.39,3.21,3.14V309.99z
		 M258.55,335.05c-0.47,0.27-1.01,0.42-1.59,0.42c-0.93,0-1.77-0.4-2.35-1.03c-0.53-0.57-0.86-1.33-0.86-2.18
		c0-1.26,0.72-2.35,1.77-2.88c0.43-0.22,0.93-0.34,1.44-0.34c0.89,0,1.7,0.36,2.29,0.95c0.57,0.59,0.93,1.38,0.93,2.27
		C260.18,333.46,259.52,334.5,258.55,335.05z M295.49,334.32c-0.44,0-0.86-0.09-1.24-0.25h-0.01c-1.16-0.49-1.96-1.63-1.96-2.96
		c0-0.7,0.22-1.35,0.61-1.88c0.57-0.81,1.52-1.34,2.6-1.34c1.77,0,3.21,1.44,3.21,3.22C298.7,332.88,297.26,334.32,295.49,334.32z"
		/>
	<g>
		
			<linearGradient id="SVGID_00000177465285805672848060000015365459855196632195_" gradientUnits="userSpaceOnUse" x1="124.7798" y1="2177.0645" x2="191.3405" y2="2177.0645" gradientTransform="matrix(0.8522 -0.5233 0.5233 0.8522 -590.7523 -1554.4526)">
			<stop  offset="0" style="stop-color:#0052A4"/>
			<stop  offset="1" style="stop-color:#622D91"/>
		</linearGradient>
		<path style="fill:url(#SVGID_00000177465285805672848060000015365459855196632195_);" d="M723.3,227.24
			c-1.01-2.3-2.19-4.52-3.52-6.68c-4.3-6.99-9.86-12.74-16.23-17.13l0-0.01c0.41-1.65,0.18-3.47-0.78-5.03
			c-0.33-0.53-0.71-1-1.15-1.39l2.89-7.86l-3.96-1.46l-2.79,7.6c-1.38-0.13-2.8,0.16-4.06,0.94c-0.53,0.33-1,0.71-1.39,1.15
			c-4.95-1.99-10.16-3.29-15.46-3.85l1.68-11.72l-4.18-0.59l-1.73,12.02c-8.51-0.28-17.16,1.32-25.28,4.96
			c-2.07-2.42-5.66-3.05-8.46-1.33c-3.11,1.91-4.08,5.98-2.17,9.09c1.9,3.1,5.98,4.07,9.08,2.17c2.14-1.31,3.26-3.66,3.13-6
			c13.49-6.1,28.55-6.13,41.67-0.9c-0.14,1.38,0.15,2.82,0.94,4.09c1.9,3.1,5.98,4.07,9.07,2.17c0.24-0.15,0.48-0.31,0.7-0.5
			c5.84,4.06,10.94,9.36,14.89,15.79c1.19,1.93,2.25,3.94,3.18,5.99c-2.47,2.06-3.13,5.7-1.4,8.53c1.9,3.1,5.98,4.07,9.07,2.17
			c3.11-1.91,4.08-5.98,2.18-9.08C727.92,228.25,725.62,227.13,723.3,227.24z M645.19,203.98c-0.26,0.51-0.65,0.94-1.17,1.26
			c-1.52,0.93-3.51,0.46-4.44-1.06c-0.93-1.52-0.45-3.51,1.06-4.44c1.09-0.67,2.43-0.61,3.44,0.05c0.39,0.25,0.74,0.59,1,1.02
			C645.7,201.81,645.7,203.01,645.19,203.98z M700.21,200.85c0.06,0.16,0.09,0.33,0.13,0.5c0.19,1.25-0.36,2.55-1.5,3.25
			c-0.24,0.15-0.48,0.25-0.73,0.33c-1.38,0.43-2.91-0.1-3.7-1.39c-0.15-0.25-0.27-0.52-0.35-0.79c-0.4-1.36,0.14-2.87,1.41-3.64
			c0.11-0.07,0.23-0.13,0.34-0.18c0.23-0.11,0.46-0.18,0.7-0.23c1.28-0.26,2.66,0.29,3.39,1.47
			C700.03,200.39,700.14,200.62,700.21,200.85z M725.28,236.58c-1.52,0.93-3.51,0.45-4.43-1.06c-0.64-1.04-0.62-2.29-0.06-3.28
			c0.25-0.46,0.64-0.87,1.12-1.16c0.89-0.55,1.94-0.61,2.86-0.26c0.64,0.25,1.2,0.7,1.58,1.32
			C727.28,233.65,726.8,235.65,725.28,236.58z"/>
	</g>
	
		<linearGradient id="SVGID_00000113340299457201417520000007882584017504566934_" gradientUnits="userSpaceOnUse" x1="106.1466" y1="298.2349" x2="885.2306" y2="267.3801">
		<stop  offset="0.1061" style="stop-color:#00BAED"/>
		<stop  offset="0.1476" style="stop-color:#00A4DD"/>
		<stop  offset="0.3508" style="stop-color:#114A9F"/>
		<stop  offset="0.4152" style="stop-color:#1A459D"/>
		<stop  offset="0.7005" style="stop-color:#2E3192"/>
		<stop  offset="0.868" style="stop-color:#B41E8E"/>
		<stop  offset="0.8955" style="stop-color:#BB2990"/>
		<stop  offset="0.9412" style="stop-color:#CD4398"/>
		<stop  offset="0.9993" style="stop-color:#EF69A7"/>
		<stop  offset="1" style="stop-color:#F06AA8"/>
	</linearGradient>
	<path style="fill:url(#SVGID_00000113340299457201417520000007882584017504566934_);" d="M678.57,152.95
		c-52.7,0-97.16,34.99-119.39,53.44s-46.94,45.38-116.1,118.25c-69.17,72.87-146.29,60.11-146.29,60.11
		c-54.63,0-146.57-43.09-153.17-131.05c-1.26,0.14-2.58,0.99-3.83,2.73c-2.37,2.8-3.3,11.29-3.23,14.84
		c0.87,44.77,29.43,84.74,65.36,109.39c1.14,0.77,3.18,2.16,4.36,2.69c3.01,2.36,11.35,6.87,15.01,8.76
		c33.56,17.31,72.12,23.55,109.54,19.46c15.71-1.71,31.45-5.8,46.23-11.22c1.61-0.59,7.83-2.95,8.97-3.71
		c8.98-3.15,35.44-17.98,42.54-24.52c1.04-0.65,2.55-1.88,3.58-2.64c5.24-3.85,13.41-10.75,18.23-15.3c0.82-0.63,1.1-0.9,1.81-1.64
		c2.45-1.87,6.81-6.24,9.18-8.54c6.33-6.14,12.53-12.42,18.58-18.84c1.07-1.14,4.09-4.63,6.23-6.88l0.11-0.12l1.27-1.42l13.92-15.6
		c70.44,71.35,125.76,83.61,165.56,83.61c39.93,0,120.32-44.68,121.86-119.55C790.57,184.77,731.27,152.95,678.57,152.95z
		 M745.73,264.7c-1.55,11.66-2.04,14.95-5.9,25.99c-10.2,22.99-21.65,36.06-43.64,48.37c-14.64,6.26-23.74,8.84-39.9,8.43
		c-14.04-0.35-22.37-2.26-35.79-6.39c-2.34-1.07-5.32-2.02-7.78-2.97c-4.48-1.78-8.9-3.71-13.25-5.8
		c-17.46-8.46-35.01-20.61-50.54-32.16l-7.5-5.97c-0.82-0.89-4.64-3.9-5.77-4.82l-13.75-11.09l2.99-3.36l0.09-0.11l3.81-4.27
		c3.03-3.31,6.25-6.71,8.15-8.7c12.29-13.09,25.36-25.43,39.1-36.98c6.43-5.2,13.02-10.18,19.78-14.93
		c12.68-8.6,25.97-16.23,40.56-21.07c1.35-0.45,2.78-0.99,4.09-1.56c24.69-6.19,37.63-6.26,61.29,1.8c1.84,1.03,4,1.75,5.77,2.75
		c6.51,3.69,14.09,9.31,18.9,15.12c2.79,3.32,5.31,6.33,7.64,10.04C742.54,230.51,747.1,248.81,745.73,264.7z"/>
	
		<linearGradient id="SVGID_00000037652628854115933440000013720861701959327876_" gradientUnits="userSpaceOnUse" x1="197.4386" y1="223.8537" x2="815.4128" y2="223.8537">
		<stop  offset="0" style="stop-color:#00ADEB"/>
		<stop  offset="0.0441" style="stop-color:#009BDC"/>
		<stop  offset="0.2598" style="stop-color:#114A9F"/>
		<stop  offset="0.301" style="stop-color:#1A459D"/>
		<stop  offset="0.4832" style="stop-color:#2E3192"/>
		<stop  offset="0.7849" style="stop-color:#B41E8E"/>
		<stop  offset="1" style="stop-color:#F06AA8"/>
	</linearGradient>
	<path style="fill:url(#SVGID_00000037652628854115933440000013720861701959327876_);" d="M812.26,282.75
		c-5.02,22.75-16.68,48.7-31.95,66.42c-24.88,29.97-59.24,51.1-98.45,55.7c-0.43,0.05-0.36,0.04-0.78,0.02
		c-23.29,4-56-2.38-77.85-10.35c-1.28-0.24-7.02-2.76-8.42-3.36c-19.28-8.22-37.28-19.14-54.29-31.34
		c-2.95-2.11-10.03-7.15-12.5-9.59c-0.87-0.51-2.47-1.84-3.32-2.51c-6.18-4.84-12.25-9.82-18.19-14.95l-18.93-16.07l13.92-15.6
		c70.44,71.35,125.76,83.61,165.56,83.61c39.93,0,120.32-44.68,121.86-119.55c1.66-80.42-57.64-112.24-110.34-112.24
		s-97.16,34.99-119.39,53.44s-46.94,45.38-116.1,118.25c-69.17,72.87-146.29,60.11-146.29,60.11c54.61,0,115.82-34.04,115.82-85.36
		s-62.03-73.83-69.72-77.68c-7.68-3.84-57.09-22.77-97.42-42.54c-40.35-19.76-48.04-52.42-48.04-66.69
		c0-14.28,15.3-70.89,98.46-70.89S437.52,104,437.52,104c-5.77,5.06-12.14-2.45-17.08-6c-6.09-4.3-12.41-8.27-18.93-11.89
		c-15.85-8.56-32.91-14.69-50.6-18.16c-29.27-5.66-66.85-3.72-90.62,16.27c-5.58,4.78-10.02,10.68-12.39,17.67
		c-10.98,32.37,23.43,48.7,47.94,57.92c2.58,0.97,7.82,2.81,10.07,3.95c10.31,3.62,20.39,7.37,30.76,10.92
		c5.38,1.81,10.73,3.69,16.06,5.62c1.8,0.65,5.21,1.83,6.77,2.59c4.74,1.43,10.08,3.79,14.73,5.59c1.61,0.62,6.23,2.41,7.58,3.17
		c2.33,0.97,7.26,2.9,9.33,4.12c6.91,2.62,35.55,18.56,39.51,23.35c2.81,1.95,8.77,7.05,11.23,9.48c0.51,0.49,1.12,1,1.6,1.53
		c2.24-2.4,5.47-4.93,7.97-7.17c5.59-5.03,11.36-9.67,17.15-14.44c12.71-10.49,25.49-21.32,38.68-31.21
		c1.1-1.29,8.38-6.5,10.07-7.71c15.75-11.33,33.73-24.23,50.9-33.19c6.19-3.99,13.65-7.17,20.31-10.35
		c71.82-34.22,158.19-23.77,203.37,46.81C812.93,205.39,820.24,244.88,812.26,282.75z"/>
	
		<linearGradient id="SVGID_00000057116445287860903330000013832879946835648898_" gradientUnits="userSpaceOnUse" x1="134.7049" y1="192.3686" x2="438.4934" y2="192.3686">
		<stop  offset="0" style="stop-color:#00BAED"/>
		<stop  offset="0.0595" style="stop-color:#00A4DD"/>
		<stop  offset="0.3508" style="stop-color:#114A9F"/>
		<stop  offset="0.3875" style="stop-color:#1A459D"/>
		<stop  offset="0.5503" style="stop-color:#2E3192"/>
		<stop  offset="0.8184" style="stop-color:#B41E8E"/>
		<stop  offset="1" style="stop-color:#F06AA8"/>
	</linearGradient>
	<path style="fill:url(#SVGID_00000057116445287860903330000013832879946835648898_);" d="M437.52,104c0,0-58.46-62.42-141.62-62.42
		s-98.46,56.61-98.46,70.89c0,14.27,7.69,46.93,48.04,66.69c40.34,19.77,89.75,38.7,97.42,42.54c7.69,3.85,69.72,26.35,69.72,77.68
		s-61.2,85.36-115.82,85.36c-54.63,0-146.57-43.09-153.17-131.05c2.3-0.27,4.01,1.83,5.43,5.05l0.2,0.46
		c0.95,2.72,2.45,5.92,3.78,8.63c17.28,35.24,49.53,61.76,87.4,72.95c4.48,1.32,9.03,2.39,13.61,3.24c4.49,1,8.83,1.17,13.01,2.05
		c21.19,1.64,38.42,0.78,58.46-7.36c21.02-8.54,40.11-30.81,29.69-54.29c-10.16-22.87-42.59-32.68-64.2-40.59
		c-11.09-4.06-22.45-7.77-33.54-12.03c-8.41-2.76-19.21-7.14-27.37-10.59c-22.35-9.46-43.96-20.44-62.01-36.95
		c-2.37-2.17-6.26-5.7-8-8.18c-3.3-2.86-6.77-7.84-9.26-11.42c-8.94-12.71-14.29-27.67-15.72-43.1
		C129.19,57.95,188.67,11.57,246.22,2.35c6.6-1.06,12.68-1.61,19.27-2.24c47.08-1.33,74.14,10.37,74.14,10.37
		c12.33,5.1,24.57,9.95,35.94,17.1c1.91,1.19,7.15,4.7,9.05,5.72l3.38,2.38c1.64,1.21,8.73,6.53,10.21,8.05
		c4.05,3.11,17.46,15.69,19.84,19.5c5.65,5.97,13.99,19.05,17.33,26.53l1.07,2.46C437.99,95.85,439.56,100.19,437.52,104z"/>
	<g class="st5">
		<g>
			<path class="st6" d="M296.74,385c-30.14,0-66.44-12.49-94.73-32.59c-24.71-17.55-54.64-48.95-58.38-98.73l0.01,0
				c6.32,84.17,94.65,130.71,153.1,130.71c27.67,0,56.17-8.52,78.2-23.37c24.04-16.21,37.28-38.11,37.28-61.65
				c0-30.98-22.34-56.54-66.39-75.96c-1.38-0.61-2.46-1.09-3.13-1.42c-2.43-1.21-9.06-3.95-18.25-7.74
				c-19.3-7.96-51.6-21.29-79.15-34.78c-17.7-8.67-30.91-20.62-39.26-35.52c-8.05-14.36-8.92-26.76-8.92-31.43
				c0-7.15,3.79-24.92,18.12-40.98c8-8.97,18.11-16.06,30.05-21.09c14.32-6.03,31.33-9.09,50.57-9.09
				c43.02,0,79.28,16.99,102.12,31.24c24.75,15.44,39.41,31.25,39.55,31.4l0,0c-0.15-0.16-15.21-15.5-39.89-30.9
				c-22.77-14.21-58.92-31.14-101.78-31.14c-34.94,0-62.66,10.37-80.16,29.98c-14.21,15.92-17.96,33.5-17.96,40.58
				c0,4.62,0.86,16.9,8.84,31.13c8.29,14.79,21.42,26.66,39,35.27c27.53,13.49,59.82,26.81,79.11,34.77
				c9.2,3.8,15.85,6.54,18.29,7.76c0.65,0.33,1.74,0.8,3.1,1.41c7.2,3.18,24.07,10.61,38.9,23.02
				c18.48,15.47,27.85,33.46,27.85,53.49c0,23.75-13.34,45.83-37.55,62.16C353.15,376.44,324.53,385,296.74,385z"/>
		</g>
		<g>
			<path class="st6" d="M303.01,385.17c-3.98,0-6.23-0.17-6.3-0.18l0.05-0.6c0.2,0.02,20.73,1.6,48.86-4.99
				c25.95-6.08,63.87-20.56,97.13-55c21.87-22.65,39.4-41.06,53.48-55.85c31.51-33.1,47.33-49.71,62.6-62.37
				c17.64-14.63,64.49-53.48,119.54-53.48c32.28,0,62.2,11.65,82.1,31.97c19.6,20,29.18,47.1,28.5,80.54
				c-0.36,17.63-5.11,34.58-14.11,50.39c-7.9,13.88-18.84,26.55-32.52,37.66C718.97,372.23,688.63,385,666.86,385
				c-24.62,0-47.95-4.94-71.32-15.1c-30.85-13.41-62.36-36.69-94.05-68.77l0.08-0.07c73.92,74.83,129.81,83.34,165.3,83.34
				c18,0,48.21-9.78,75.11-31.62c29.25-23.75,45.73-54.86,46.4-87.59c0.68-33.27-8.84-60.22-28.32-80.1
				c-19.79-20.2-49.56-31.79-81.67-31.79c-54.84,0-101.56,38.75-119.16,53.34c-15.24,12.64-31.05,29.25-62.55,62.33
				c-14.09,14.8-31.62,33.21-53.49,55.86c-33.37,34.56-71.41,49.08-97.45,55.18C326.75,384.44,311.21,385.17,303.01,385.17z"/>
		</g>
	</g>
	<g>
		<path d="M1.12,541.5v-12.93h55.5c6.92,0,10.79-3.87,10.79-9.67c0-6.31-3.87-9.57-10.79-9.57H22.61C8.66,509.32,0,500.46,0,488.24
			c0-11.91,8.04-20.77,22.81-20.77h53.16v12.93H22.81c-5.91,0-9.37,3.46-9.37,9.06c0,5.6,3.56,8.96,9.27,8.96h33.91
			c14.97,0,23.01,7.03,23.01,21.39c0,12.42-7.54,21.69-23.01,21.69H1.12z"/>
		<path d="M153.12,541.5v-28.11l-37.94-45.93h16.81l27.81,34.11l27.91-34.11h15.92l-38.04,45.93v28.11H153.12z"/>
		<path d="M258.04,467.76l53.04,53.38v-53.38h13.79v73.74h-14.03l-52.57-53.85v53.85h-13.79v-73.74"/>
		<path d="M403.29,541.5v-61.1h-32.9v-12.93h78.68v12.93h-32.9v61.1H403.29z"/>
		<polygon points="557.38,467.37 557.38,497.94 506.29,497.94 506.29,467.37 492.61,467.37 492.61,541.5 506.29,541.5 
			506.29,509.41 557.38,509.41 557.38,541.5 571.52,541.5 571.52,467.37 		"/>
		<path d="M747.06,541.5h12.67v-27.75h31.21l14.24,27.75h18.09l-17.75-29.66c9.44-3.63,15.98-9.12,15.98-21.18
			c0-16.29-10.76-23.2-27.44-23.2h-47v12.76h47c8.74,0,13.97,0.99,13.97,10.44c0,9.45-4.82,11.83-13.97,11.83h-47V541.5z"/>
		<g>
			<path d="M653.4,530.74v12.91c-18.12-2.44-32.48-15.92-35.2-33h13.68C634.3,520.7,642.72,528.59,653.4,530.74z"/>
			<path d="M700.41,510.65c-2.71,17.01-16.96,30.45-34.97,32.97V530.7c10.56-2.22,18.9-10.06,21.29-20.04H700.41z"/>
			<path d="M653.4,465.83v12.91c-10.83,2.18-19.35,10.27-21.61,20.52h-13.65C620.69,481.97,635.13,468.28,653.4,465.83z"/>
			<path d="M700.48,499.26h-13.64c-2.25-10.18-10.67-18.23-21.39-20.48v-12.92C683.6,468.39,697.95,482.04,700.48,499.26z"/>
		</g>
		<g>
			
				<linearGradient id="SVGID_00000069366103797389347280000006970129959273508542_" gradientUnits="userSpaceOnUse" x1="-0.9905" y1="606.743" x2="939.3202" y2="606.743">
				<stop  offset="0" style="stop-color:#0073BD"/>
				<stop  offset="0.4888" style="stop-color:#EC008C"/>
				<stop  offset="1" style="stop-color:#5C2D91"/>
			</linearGradient>
			<path style="fill:url(#SVGID_00000069366103797389347280000006970129959273508542_);" d="M231.24,629.32h-8.44l17.55-45.16h8.98
				l17.21,45.16h-8.44l-13.23-38.07L231.24,629.32z"/>
			
				<linearGradient id="SVGID_00000116196107427138041960000002924543036248915628_" gradientUnits="userSpaceOnUse" x1="-0.9905" y1="606.743" x2="939.3202" y2="606.743">
				<stop  offset="0" style="stop-color:#0073BD"/>
				<stop  offset="0.4888" style="stop-color:#EC008C"/>
				<stop  offset="1" style="stop-color:#5C2D91"/>
			</linearGradient>
			<path style="fill:url(#SVGID_00000116196107427138041960000002924543036248915628_);" d="M314.54,629.32v-45.16h7.9v45.16H314.54
				z"/>
			
				<linearGradient id="SVGID_00000016051107337139987720000003467630257109983660_" gradientUnits="userSpaceOnUse" x1="-0.9905" y1="606.743" x2="939.3202" y2="606.743">
				<stop  offset="0" style="stop-color:#0073BD"/>
				<stop  offset="0.4888" style="stop-color:#EC008C"/>
				<stop  offset="1" style="stop-color:#5C2D91"/>
			</linearGradient>
			<path style="fill:url(#SVGID_00000016051107337139987720000003467630257109983660_);" d="M462.36,629.32h-30.78v-45.16h7.9v38.21
				h22.88V629.32z"/>
			
				<linearGradient id="SVGID_00000163051656198528578210000007398953557162567568_" gradientUnits="userSpaceOnUse" x1="-0.9905" y1="606.743" x2="939.3202" y2="606.743">
				<stop  offset="0" style="stop-color:#0073BD"/>
				<stop  offset="0.4888" style="stop-color:#EC008C"/>
				<stop  offset="1" style="stop-color:#5C2D91"/>
			</linearGradient>
			<path style="fill:url(#SVGID_00000163051656198528578210000007398953557162567568_);" d="M598.03,584.16h22.95
				c4.05,0,7.22,1.13,9.52,3.37c2.29,2.25,3.44,5.04,3.44,8.37c0,2.12-0.53,4.01-1.59,5.67c-1.06,1.67-2.51,2.88-4.35,3.64
				c2.43,0.63,4.36,1.92,5.8,3.88c1.44,1.96,2.16,4.35,2.16,7.19c0,3.91-1.36,7.07-4.08,9.45c-2.72,2.39-6.51,3.58-11.37,3.58
				h-22.48V584.16z M605.86,603.33h13.5c1.98,0,3.64-0.58,4.99-1.75c1.35-1.17,2.02-2.7,2.02-4.59c0-1.89-0.63-3.44-1.89-4.66
				c-1.26-1.21-2.88-1.82-4.86-1.82h-13.77V603.33z M605.86,609.14v13.77h14.24c2.38,0,4.31-0.66,5.77-1.99
				c1.46-1.33,2.19-3,2.19-5.03c0-1.93-0.67-3.54-2.02-4.83c-1.35-1.28-3.02-1.92-4.99-1.92H605.86z"/>
			
				<linearGradient id="SVGID_00000068645509597450410420000011508659521029872558_" gradientUnits="userSpaceOnUse" x1="-0.9905" y1="606.7095" x2="939.3202" y2="606.7095">
				<stop  offset="0" style="stop-color:#0073BD"/>
				<stop  offset="0.4888" style="stop-color:#EC008C"/>
				<stop  offset="1" style="stop-color:#5C2D91"/>
			</linearGradient>
			<path style="fill:url(#SVGID_00000068645509597450410420000011508659521029872558_);" d="M685.51,617.58
				c4.81,3.74,10.62,5.6,17.41,5.6c3.06,0,5.51-0.6,7.36-1.79c1.84-1.19,2.77-2.85,2.77-4.96c0-0.95-0.24-1.78-0.71-2.5
				c-0.47-0.72-1.01-1.28-1.62-1.69c-0.61-0.4-1.51-0.78-2.7-1.11c-1.19-0.34-2.21-0.58-3.04-0.74c-0.83-0.16-2.01-0.35-3.54-0.57
				c-1.48-0.22-2.73-0.44-3.75-0.64c-1.01-0.2-2.27-0.51-3.78-0.91c-1.51-0.4-2.77-0.92-3.78-1.55c-1.01-0.63-2.01-1.38-3-2.26
				c-0.99-0.88-1.73-1.97-2.23-3.27c-0.5-1.3-0.74-2.77-0.74-4.39c0-4.32,1.65-7.63,4.96-9.92c3.31-2.29,7.8-3.44,13.47-3.44
				c5.98,0,11.72,1.4,17.21,4.18l-3.17,6.14c-4.64-2.43-9.45-3.64-14.44-3.64c-3.24,0-5.7,0.56-7.39,1.69
				c-1.69,1.13-2.53,2.66-2.53,4.59c0,0.9,0.21,1.7,0.64,2.4c0.43,0.7,0.95,1.26,1.55,1.69c0.61,0.43,1.43,0.81,2.46,1.15
				c1.03,0.34,1.97,0.6,2.8,0.78c0.83,0.18,1.88,0.36,3.14,0.54c1.3,0.23,2.2,0.37,2.7,0.44c0.49,0.07,1.39,0.24,2.7,0.51
				c1.3,0.27,2.25,0.51,2.83,0.71c0.58,0.2,1.43,0.5,2.53,0.88c1.1,0.38,1.93,0.79,2.5,1.21c0.56,0.43,1.23,0.96,1.99,1.59
				c0.76,0.63,1.34,1.31,1.72,2.03c0.38,0.72,0.71,1.56,0.98,2.53c0.27,0.97,0.41,2.01,0.41,3.14c0,4.59-1.73,8.08-5.2,10.46
				c-3.47,2.39-8.1,3.58-13.9,3.58c-3.91,0-7.61-0.59-11.07-1.75c-3.47-1.17-6.39-2.65-8.77-4.45L685.51,617.58z"/>
			
				<linearGradient id="SVGID_00000114042159408729194080000012427931068666052488_" gradientUnits="userSpaceOnUse" x1="-0.9905" y1="606.743" x2="939.3202" y2="606.743">
				<stop  offset="0" style="stop-color:#0073BD"/>
				<stop  offset="0.4888" style="stop-color:#EC008C"/>
				<stop  offset="1" style="stop-color:#5C2D91"/>
			</linearGradient>
			<path style="fill:url(#SVGID_00000114042159408729194080000012427931068666052488_);" d="M514.87,629.32h-8.44l17.55-45.16h8.98
				l17.21,45.16h-8.44l-13.23-38.07L514.87,629.32z"/>
		</g>
		<g>
			
				<linearGradient id="SVGID_00000080184237594891967060000006201837767229697462_" gradientUnits="userSpaceOnUse" x1="5.0708" y1="605.6899" x2="939.389" y2="605.6899">
				<stop  offset="0" style="stop-color:#0073BD"/>
				<stop  offset="0.4888" style="stop-color:#EC008C"/>
				<stop  offset="1" style="stop-color:#5C2D91"/>
			</linearGradient>
			<path style="fill:url(#SVGID_00000080184237594891967060000006201837767229697462_);" d="M942.51,598.09
				c-3.71,0-6.79,2.65-7.46,6.16H756.1v2.88h178.95c0.67,3.51,3.76,6.16,7.46,6.16c4.2,0,7.6-3.4,7.6-7.6
				S946.71,598.09,942.51,598.09z"/>
			
				<linearGradient id="SVGID_00000099653041418569331500000017209963192278201755_" gradientUnits="userSpaceOnUse" x1="5.0708" y1="605.6899" x2="939.389" y2="605.6899">
				<stop  offset="0" style="stop-color:#0073BD"/>
				<stop  offset="0.4888" style="stop-color:#EC008C"/>
				<stop  offset="1" style="stop-color:#5C2D91"/>
			</linearGradient>
			<path style="fill:url(#SVGID_00000099653041418569331500000017209963192278201755_);" d="M7.6,598.09c3.71,0,6.79,2.65,7.46,6.16
				h178.95v2.88H15.07c-0.67,3.51-3.76,6.16-7.46,6.16c-4.2,0-7.6-3.4-7.6-7.6C0,601.49,3.4,598.09,7.6,598.09z"/>
		</g>
		
			<linearGradient id="SVGID_00000183946797407402863290000010394683570848736922_" gradientUnits="userSpaceOnUse" x1="652.9213" y1="502.329" x2="663.0622" y2="506.1534">
			<stop  offset="0" style="stop-color:#452F92"/>
			<stop  offset="1" style="stop-color:#BF1A8D"/>
		</linearGradient>
		
			<ellipse style="fill:url(#SVGID_00000183946797407402863290000010394683570848736922_);" cx="659.31" cy="504.74" rx="8.59" ry="8.12"/>
		<polygon points="907.08,467.47 903.39,467.47 859.91,541.5 875.57,541.5 905.24,490.34 935.1,541.5 950.12,541.5 		"/>
		
			<linearGradient id="SVGID_00000116919100085664895620000010381038946220781448_" gradientUnits="userSpaceOnUse" x1="894.0228" y1="532.478" x2="916.6461" y2="532.478">
			<stop  offset="0" style="stop-color:#452F92"/>
			<stop  offset="1" style="stop-color:#BF1A8D"/>
		</linearGradient>
		<polygon style="fill:url(#SVGID_00000116919100085664895620000010381038946220781448_);" points="916.65,541.5 906.12,523.46 
			904.49,523.46 894.02,541.5 		"/>
	</g>
</g>
</svg>
